<svg width="20" height="20" viewBox="0 0 20 20" fill="none" xmlns="http://www.w3.org/2000/svg">
<path d="M17.3581 6.67485L11.8998 2.30819C10.8331 1.45819 9.16647 1.44985 8.10814 2.29985L2.64981 6.67485C1.86647 7.29985 1.39147 8.54985 1.55814 9.53319L2.60814 15.8165C2.84981 17.2249 4.15814 18.3332 5.58314 18.3332H14.4165C15.8248 18.3332 17.1581 17.1999 17.3998 15.8082L18.4498 9.52485C18.5998 8.54985 18.1248 7.29985 17.3581 6.67485ZM10.6248 14.9999C10.6248 15.3415 10.3415 15.6249 9.99981 15.6249C9.65814 15.6249 9.37481 15.3415 9.37481 14.9999V12.4999C9.37481 12.1582 9.65814 11.8749 9.99981 11.8749C10.3415 11.8749 10.6248 12.1582 10.6248 12.4999V14.9999Z" fill="#2382A0"/>
</svg>
