<svg width="429" height="52" viewBox="0 0 429 52" fill="none" xmlns="http://www.w3.org/2000/svg">
<g clip-path="url(#clip0_232_4)">
<path d="M37.8865 5.80273L27.504 44.1384L32.1461 45.4113L42.5287 7.0756L37.8865 5.80273ZM21.5389 8.54813L2.37106 23.7226L0 25.6195L2.37106 27.4914L21.5389 42.6659L24.5339 38.8972L7.73711 25.6195L24.5339 12.3168L21.5389 8.54813ZM48.4937 8.54813L45.4987 12.3168L62.2955 25.6195L45.4987 38.8972L48.4937 42.6659L67.6616 27.4914L70.0326 25.6195L67.6616 23.7226L48.4937 8.54813Z" fill="#0EA47A"/>
<path d="M124.179 32.7789C123.372 34.3947 122.794 35.3181 122.275 35.9529C120.486 38.2613 116.216 41.897 108.771 41.897C105.366 41.897 103.289 41.2044 101.961 40.6273C93.4204 37.0494 92.8433 28.3353 92.8433 25.6229C92.8433 24.6419 92.9587 22.2181 93.8244 19.6212C97.1138 9.926 106.52 9.52204 109.521 9.52204C114.773 9.52204 117.889 11.1379 119.736 12.4075C120.198 12.7538 121.525 13.7348 122.621 15.0621C123.256 15.8701 123.602 16.4472 124.122 17.3128L115.119 22.3912C114.888 21.641 114.657 21.0639 114.542 20.8331C114.138 19.9674 112.868 17.8899 109.983 17.8899C108.713 17.8899 107.848 18.3516 107.444 18.6401C104.558 20.6022 104.616 25.5075 104.616 25.9692C104.616 26.3154 104.558 29.374 106.001 31.163C106.232 31.5093 106.694 31.971 107.675 32.3749C108.021 32.4903 108.771 32.8366 109.81 32.8366C113.676 32.7789 114.831 28.4507 115.061 27.7582L124.179 32.7789ZM139.415 40.7428H127.469V0H139.415V40.7428ZM156.266 7.90617H144.378V0H156.266V7.90617ZM156.266 40.7428H144.378V10.8494H156.266V40.7428ZM192.738 27.9313H171.905C171.905 27.9313 171.905 29.3163 172.194 30.2397C172.598 31.3939 173.752 33.5868 176.926 33.5291C178.772 33.5291 179.754 32.8943 180.331 32.3749C181.543 31.3939 182.12 30.0665 182.35 29.6626L192.103 33.7599C191.815 34.2216 191.469 34.8564 190.661 35.7798C188.583 38.2036 186.217 39.5309 185.178 40.0503C183.735 40.7428 180.619 41.9547 176.349 41.9547C173.867 41.9547 171.501 41.6084 169.25 40.6851C163.076 38.1459 159.786 32.1441 159.786 25.6229C159.786 19.448 162.614 15.6392 164.345 13.9657C168.616 9.86829 174.56 9.57974 176.233 9.57974C178.253 9.57974 184.37 9.86829 188.698 14.5427C190.141 16.1009 191.238 18.063 191.872 20.0828C192.68 22.6798 192.738 25.219 192.738 27.9313ZM180.677 21.641C180.619 21.2947 180.619 20.7176 180.388 19.9674C179.58 17.4859 177.387 17.1397 176.464 17.1397C175.541 17.1974 174.964 17.4282 174.617 17.6013C172.424 18.5824 172.136 21.0062 172.02 21.641H180.677ZM228.114 40.7428H216.226V24.411C216.226 23.7185 216.226 23.0837 216.053 22.3912C215.764 21.3524 214.898 19.9097 212.186 19.9097C207.8 19.9097 207.858 23.5454 207.858 24.815V40.7428H196.028V10.8494H207.223V14.8313C207.973 13.7348 208.089 13.6194 208.666 13.0423C210.859 10.8493 214.033 10.0414 217.091 10.0414C218.188 10.0414 221.881 10.0991 224.709 12.5229C226.267 13.7925 227.248 15.7546 227.71 17.7168C227.941 18.6978 228.114 19.7366 228.114 21.8718V40.7428ZM252.236 40.5119C251.255 40.6274 247.966 41.1467 244.734 41.1467C238.444 41.1467 236.078 38.7229 235.212 35.7221C234.924 34.6256 234.866 33.5291 234.866 32.4903L235.039 18.0053H230.942V11.5419H235.097L235.212 2.13524H247.158L247.1 11.5419H252.179V18.0053H246.985L246.812 29.4895C246.812 30.7014 246.985 32.6058 250.101 32.6058C250.794 32.6058 251.082 32.6058 252.236 32.3749V40.5119ZM303.021 10.8494L293.095 40.7428H280.456L270.473 10.8494H283.053L286.689 29.3163L290.555 10.8494H303.021ZM336.607 10.8494L325.7 42.4741C324.777 45.1287 323.738 47.841 321.488 49.6877C319.122 51.5921 316.813 51.5344 313.87 51.5344C312.889 51.5344 311.85 51.5921 310.869 51.4767L307.58 51.1305V42.6472C308.734 42.7049 309.83 42.8203 310.984 42.8203C312.658 42.8203 313.466 42.474 313.466 41.3776C313.466 40.9159 313.004 39.6463 312.543 38.319L303.078 10.8494H315.486L319.756 30.3551C319.756 30.3551 324.2 11.1956 324.258 10.8494H336.607ZM366.905 30.7591C366.905 32.4903 366.559 34.0485 365.693 35.6066C362.288 41.7815 354.324 41.897 352.708 41.897C348.265 41.897 343.706 40.6274 339.955 38.2613C338.8 37.5688 337.762 36.7031 336.665 35.8952L343.359 29.8357C343.937 30.3551 344.456 30.8168 345.033 31.2784C346.014 31.971 348.957 33.8177 352.593 33.8177C352.881 33.8177 353.805 33.8177 354.555 33.4714C355.421 33.0674 355.709 32.3172 355.709 31.9132C355.709 31.567 355.536 31.2784 355.478 31.2207C354.728 30.0666 353.401 30.182 351.15 29.778C350.458 29.6626 347.63 29.0855 345.264 28.2776C342.494 27.3542 340.359 26.2577 339.031 23.43C338.512 22.2758 338.223 21.1216 338.223 19.852C338.223 17.2551 339.435 15.293 339.955 14.5427C341.686 12.119 345.091 9.63745 351.785 9.63745C355.363 9.63745 359.922 10.3877 363.154 12.0612C364.25 12.6383 365.058 13.2154 366.039 13.9657L359.633 19.7943C358.768 19.2172 355.594 16.9088 351.958 16.9088C351.727 16.9088 350.919 16.9088 350.285 17.1974C349.592 17.5436 349.419 18.1784 349.419 18.467C349.419 19.2172 350.054 19.5635 350.227 19.6212C350.746 19.9097 351.9 20.1405 353.343 20.4868C357.729 21.5833 360.268 21.9872 362.173 22.9683C363.673 23.7185 366.905 26.0269 366.905 30.7591ZM404.012 25.8538C404.012 27.4696 403.723 32.6058 400.145 36.5877C398.068 38.8961 393.624 41.897 386.18 41.897C384.448 41.897 379.081 41.8392 374.696 38.3767C372.503 36.6454 369.155 32.8366 369.155 26.0269C369.155 21.8718 370.425 17.7745 373.253 14.7159C375.273 12.5229 379.543 9.52203 386.815 9.57974C388.373 9.57974 394.548 9.75287 398.991 13.6194C402.338 16.5626 404.012 21.4102 404.012 25.8538ZM392.008 25.5652C392.008 21.0639 390.566 18.9864 388.43 18.2361C387.565 17.9476 386.815 17.9476 386.468 17.9476C384.391 18.0053 383.237 19.0441 382.717 19.6212C381.794 20.6022 380.986 22.622 380.986 25.6806C380.986 28.6238 381.736 30.6436 382.486 31.6824C382.948 32.3172 383.583 32.8366 384.275 33.1251C384.622 33.2983 385.487 33.5291 386.526 33.5291C387.911 33.5291 389.181 33.1251 390.104 32.2018C391.143 31.163 392.008 28.9124 392.008 25.5652ZM429 20.256C428.423 20.1983 427.846 20.1405 427.269 20.1405C426.345 20.0828 421.267 19.7943 419.824 23.8339C419.478 24.815 419.478 25.6229 419.478 26.6617V40.7428H407.648V10.8494H419.074V13.4463C419.651 12.9269 420.055 12.5806 420.69 12.1767C423.345 10.33 425.884 10.2145 429 10.2145V20.256Z" fill="white"/>
</g>
<defs>
<clipPath id="clip0_232_4">
<rect width="429" height="51.5488" fill="white"/>
</clipPath>
</defs>
</svg>
