<svg width="28" height="28" viewBox="0 0 28 28" fill="none" xmlns="http://www.w3.org/2000/svg">
<path d="M10.675 8.73834C10.0217 8.73834 9.50833 9.26334 9.50833 9.90501C9.50833 10.5467 10.0333 11.0717 10.675 11.0717C11.3167 11.0717 11.8417 10.5467 11.8417 9.90501C11.8417 9.26334 11.3167 8.73834 10.675 8.73834Z" fill="#2382A0"/>
<path d="M25.0367 5.87998C24.0567 3.60498 21.8983 2.33331 18.8883 2.33331H9.11168C5.36668 2.33331 2.33334 5.36665 2.33334 9.11165V18.8883C2.33334 21.8983 3.60501 24.0566 5.88001 25.0366C6.10168 25.13 6.35834 25.0716 6.52168 24.9083L24.9083 6.52165C25.0833 6.34665 25.1417 6.08998 25.0367 5.87998ZM12.285 14.28C11.83 14.7233 11.235 14.9333 10.64 14.9333C10.045 14.9333 9.45001 14.7116 8.99501 14.28C7.80501 13.16 6.49834 11.375 7.00001 9.25165C7.44334 7.32665 9.14668 6.46331 10.64 6.46331C12.1333 6.46331 13.8367 7.32665 14.28 9.26331C14.77 11.375 13.4633 13.16 12.285 14.28Z" fill="#2382A0"/>
<path d="M22.715 23.9517C22.9717 24.2083 22.9367 24.6283 22.6217 24.8033C21.595 25.375 20.3467 25.6667 18.8883 25.6667H9.11166C8.77332 25.6667 8.63332 25.27 8.86666 25.0367L15.9133 17.99C16.1467 17.7567 16.5083 17.7567 16.7417 17.99L22.715 23.9517Z" fill="#2382A0"/>
<path d="M25.6667 9.11169V18.8884C25.6667 20.3467 25.375 21.6067 24.8033 22.6217C24.6283 22.9367 24.2083 22.96 23.9517 22.715L17.9783 16.7417C17.745 16.5084 17.745 16.1467 17.9783 15.9134L25.025 8.86669C25.27 8.63335 25.6667 8.77335 25.6667 9.11169Z" fill="#2382A0"/>
</svg>
