<svg width="20" height="20" viewBox="0 0 20 20" fill="none" xmlns="http://www.w3.org/2000/svg">
<path d="M6.3582 2.97506C6.50769 2.89353 6.66654 3.01897 6.66654 3.18924V14.4667C6.66654 14.664 6.53145 14.8306 6.3582 14.9251V14.9251L4.39987 16.0417C3.0332 16.8251 1.9082 16.1751 1.9082 14.5917V6.4834C1.9082 5.9584 2.2832 5.3084 2.74987 5.04173L6.3582 2.97506V2.97506Z" fill="#2382A0"/>
<path d="M12.2219 5.06214C12.3922 5.1465 12.5 5.32013 12.5 5.51021V16.2868C12.5 16.6553 12.115 16.8972 11.783 16.7372L8.40798 15.1112C8.23498 15.0279 8.125 14.8528 8.125 14.6608V3.83878C8.125 3.46792 8.51456 3.22613 8.8469 3.39071L12.2219 5.06214Z" fill="#2382A0"/>
<path d="M18.3335 5.40855V13.5169C18.3335 14.0419 17.9585 14.6919 17.4918 14.9586L14.7071 16.5545C14.3738 16.7455 13.9585 16.5049 13.9585 16.1207V5.32387C13.9585 5.14436 14.0547 4.97862 14.2106 4.88963L15.8418 3.95855C17.2085 3.17522 18.3335 3.82522 18.3335 5.40855Z" fill="#2382A0"/>
</svg>
