<svg width="40" height="40" viewBox="0 0 40 40" fill="none" xmlns="http://www.w3.org/2000/svg">
<path fill-rule="evenodd" clip-rule="evenodd" d="M10.572 29.4281C13.0724 31.9286 16.4638 33.3334 20 33.3334C23.5363 33.3334 26.9276 31.9286 29.4281 29.4281C31.9286 26.9276 33.3334 23.5363 33.3334 20C33.3334 16.4638 31.9286 13.0724 29.4281 10.572C26.9276 8.07147 23.5363 6.66671 20 6.66671C16.4638 6.66671 13.0724 8.07147 10.572 10.572C8.07147 13.0724 6.66671 16.4638 6.66671 20C6.66671 23.5363 8.07147 26.9276 10.572 29.4281ZM13.622 4.60205C15.6441 3.76447 17.8113 3.33337 20 3.33337C22.1887 3.33337 24.356 3.76447 26.3781 4.60205C28.4002 5.43963 30.2375 6.66728 31.7852 8.21493C33.3328 9.76257 34.5605 11.5999 35.398 13.622C36.2356 15.6441 36.6667 17.8113 36.6667 20C36.6667 24.4203 34.9108 28.6595 31.7852 31.7852C28.6595 34.9108 24.4203 36.6667 20 36.6667C17.8113 36.6667 15.6441 36.2356 13.622 35.398C11.5999 34.5605 9.76257 33.3328 8.21493 31.7852C5.08932 28.6595 3.33337 24.4203 3.33337 20C3.33337 15.5798 5.08932 11.3405 8.21493 8.21493C9.76257 6.66728 11.5999 5.43963 13.622 4.60205Z" fill="#4E61C9"/>
<path fill-rule="evenodd" clip-rule="evenodd" d="M20 12C16.5 12 13.6667 14.8334 13.6667 18.3334C13.6667 23.3334 20 29.1667 20 29.1667C20 29.1667 26.3334 23.3334 26.3334 18.3334C26.3334 14.8334 23.5 12 20 12ZM18.2323 20.1011C18.7011 20.57 19.337 20.8334 20 20.8334C20.6631 20.8334 21.299 20.57 21.7678 20.1011C22.2366 19.6323 22.5 18.9964 22.5 18.3334C22.5 17.6703 22.2366 17.0344 21.7678 16.5656C21.299 16.0968 20.6631 15.8334 20 15.8334C19.337 15.8334 18.7011 16.0968 18.2323 16.5656C17.7634 17.0344 17.5 17.6703 17.5 18.3334C17.5 18.9964 17.7634 19.6323 18.2323 20.1011Z" fill="white"/>
</svg>
